<svg width="70" height="70" viewBox="0 0 70 70" fill="none" xmlns="http://www.w3.org/2000/svg">
<path d="M35 68C53.2254 68 68 53.2254 68 35C68 16.7746 53.2254 2 35 2C16.7746 2 2 16.7746 2 35C2 53.2254 16.7746 68 35 68Z" stroke="url(#paint0_linear)" stroke-width="4" stroke-miterlimit="10"/>
<path d="M46.8095 17.8785C41.9076 7.85039 35.0833 3.05737 35.0833 3.05737C35.0833 3.05737 20.4223 11.7271 19.9225 32.3473C19.4163 52.9675 35 67.0517 35 67.0517C35 67.0517 42.055 60.5543 47.0594 52.0383" stroke="url(#paint1_linear)" stroke-width="4" stroke-miterlimit="10"/>
<path d="M19.9417 34.6796H2" stroke="url(#paint2_linear)" stroke-width="4" stroke-miterlimit="10"/>
<path d="M7.36969 17.3786H23.0495H63.271H7.36969Z" stroke="url(#paint3_linear)" stroke-width="4" stroke-miterlimit="10"/>
<path d="M7.36969 52.6214H63.271H7.36969Z" stroke="url(#paint4_linear)" stroke-width="4" stroke-miterlimit="10"/>
<path d="M36.8157 32.3802L42.057 24H45.4512L38.5428 34.8431L45.6164 45.8665H42.1922L36.8157 37.3362L31.4091 45.8665H28L35.0886 34.8431L28.1652 24H31.5443L36.8157 32.3802Z" fill="url(#paint5_linear)"/>
<path d="M61.025 36.2098H51.8489V45.8665H48.9654V24H62.5118V26.3729H51.8489V33.8519H61.025V36.2098Z" fill="url(#paint6_linear)"/>
<path d="M36.8157 32.3802L42.057 24H45.4512L38.5428 34.8431L45.6164 45.8665H42.1922L36.8157 37.3362L31.4091 45.8665H28L35.0886 34.8431L28.1652 24H31.5443L36.8157 32.3802Z" stroke="url(#paint7_linear)" stroke-miterlimit="10"/>
<path d="M61.025 36.2098H51.8489V45.8665H48.9654V24H62.5118V26.3729H51.8489V33.8519H61.025V36.2098Z" stroke="url(#paint8_linear)" stroke-miterlimit="10"/>
<defs>
<linearGradient id="paint0_linear" x1="35" y1="2" x2="35" y2="68" gradientUnits="userSpaceOnUse">
<stop stop-color="#1E8130"/>
<stop offset="1" stop-color="#49811E"/>
</linearGradient>
<linearGradient id="paint1_linear" x1="33.4849" y1="3.05737" x2="33.4849" y2="67.0517" gradientUnits="userSpaceOnUse">
<stop stop-color="#1E8130"/>
<stop offset="1" stop-color="#49811E"/>
</linearGradient>
<linearGradient id="paint2_linear" x1="10.9709" y1="34.6796" x2="10.9709" y2="35.6796" gradientUnits="userSpaceOnUse">
<stop stop-color="#1E8130"/>
<stop offset="1" stop-color="#49811E"/>
</linearGradient>
<linearGradient id="paint3_linear" x1="35.3204" y1="17.3786" x2="35.3204" y2="18.3786" gradientUnits="userSpaceOnUse">
<stop stop-color="#1E8130"/>
<stop offset="1" stop-color="#49811E"/>
</linearGradient>
<linearGradient id="paint4_linear" x1="35.3204" y1="52.6214" x2="35.3204" y2="53.6214" gradientUnits="userSpaceOnUse">
<stop stop-color="#1E8130"/>
<stop offset="1" stop-color="#49811E"/>
</linearGradient>
<linearGradient id="paint5_linear" x1="45.2559" y1="24" x2="45.2559" y2="45.8665" gradientUnits="userSpaceOnUse">
<stop stop-color="#1E8130"/>
<stop offset="1" stop-color="#49811E"/>
</linearGradient>
<linearGradient id="paint6_linear" x1="45.2559" y1="24" x2="45.2559" y2="45.8665" gradientUnits="userSpaceOnUse">
<stop stop-color="#1E8130"/>
<stop offset="1" stop-color="#49811E"/>
</linearGradient>
<linearGradient id="paint7_linear" x1="45.2559" y1="24" x2="45.2559" y2="45.8665" gradientUnits="userSpaceOnUse">
<stop stop-color="#1E8130"/>
<stop offset="1" stop-color="#49811E"/>
</linearGradient>
<linearGradient id="paint8_linear" x1="45.2559" y1="24" x2="45.2559" y2="45.8665" gradientUnits="userSpaceOnUse">
<stop stop-color="#1E8130"/>
<stop offset="1" stop-color="#49811E"/>
</linearGradient>
</defs>
</svg>
