<svg width="273" height="118" viewBox="0 0 273 118" fill="none" xmlns="http://www.w3.org/2000/svg">
<path d="M222.593 35.3858C219.426 34.4857 217.249 32.7702 217.513 31.383L219.098 23.0597C219.626 20.2853 212.566 17.9133 202.537 17.9875L176.604 18.2948C172.447 18.2101 167.565 17.5536 164.398 16.6535L146.385 10.4376C141.766 8.39392 135.168 7.98098 130.021 8.71169C128.305 8.95526 124.874 9.4424 123.884 10.2578L105.935 16.8551L100.788 17.5859C99.0719 17.8294 97.3563 18.073 94.9149 17.7447L68.9826 18.052C66.5413 17.7238 63.1099 18.2109 61.3943 18.4545C56.2473 19.1852 52.5518 21.0595 51.2976 23.2622L52.8795 32.4855C54.331 33.6292 52.3511 35.26 49.6455 36.3189L29.2549 42.588C23.118 44.1341 23.3153 47.4804 30.3753 49.8524L50.1037 55.8247C53.2708 56.7247 55.448 58.4402 55.1838 59.8274L53.5986 68.1507C53.0702 70.9252 60.1301 73.2971 70.1599 73.2229L96.0921 72.9156C100.249 73.0003 105.132 73.6568 108.299 74.5569L126.312 80.7728C130.93 82.8165 137.529 83.2294 142.676 82.4987C144.392 82.2552 146.107 82.0116 147.097 81.1962L165.046 74.5988C166.762 74.3553 167.752 73.5399 169.468 73.2963C171.183 73.0527 172.899 72.8092 175.34 73.1374L201.998 73.402C204.44 73.7302 206.155 73.4866 207.871 73.2431C213.018 72.5124 216.714 70.638 217.968 68.4354L217.111 59.7838C217.376 58.3966 219.356 56.7658 222.061 55.7069L240.736 49.6813C246.147 47.5634 247.666 43.9736 241.331 42.1734L222.593 35.3858ZM165.377 68.4782C127.633 73.8367 83.6879 67.9281 67.7218 55.348C51.7558 42.7679 69.5746 28.0908 107.319 22.7323C145.064 17.3737 189.009 23.2823 204.975 35.8624C220.941 48.4425 203.122 63.1196 165.377 68.4782Z" fill="url(#paint0_linear)"/>
<path d="M116.936 93.104C113.812 92.0118 112.91 90.7463 110.966 89.1168L104.373 82.0614L85.9724 80.3787C82.7088 80.1878 78.4037 79.6328 75.2795 78.5406C73.1966 77.8124 72.1552 77.4483 71.2532 76.1829L19.9951 95.316L74.8535 95.4932L82.4801 117.161L122.283 94.0231C120.06 94.1963 117.978 93.4681 116.936 93.104Z" fill="url(#paint1_linear)"/>
<path d="M199.608 78.5402C196.484 79.6325 193.22 79.8234 188.915 80.3784L170.514 82.061L163.921 89.1164C163.019 90.3819 161.075 92.0114 157.951 93.1037C155.868 93.8318 154.827 94.1959 151.563 94.3868L192.407 117.161L200.034 95.4928L254.892 95.3156L202.593 76.5466C202.732 77.4479 200.649 78.1761 199.608 78.5402Z" fill="url(#paint2_linear)"/>
<path d="M157.629 46.224L162.647 48.69L173.376 49.0856L165.502 50.8856L167.526 53.5494L157.629 52.051L147.733 53.5494L149.756 50.8856L141.883 49.0856L152.905 48.69L157.629 46.224Z" fill="#7DBB02"/>
<path d="M110.391 45.558H126.137V46.8899H110.391V45.558Z" fill="#7DBB02"/>
<path d="M110.391 42.8943H136.635V44.2262H110.391V42.8943Z" fill="#7DBB02"/>
<path d="M110.391 40.2305H136.635V41.5624H110.391V40.2305Z" fill="#7DBB02"/>
<path d="M136.634 52.2175H105.141V38.8987H168.127V45.5581H173.376V38.8987C173.376 38.5454 172.823 38.2066 171.838 37.9569C170.854 37.7071 169.519 37.5668 168.127 37.5668H105.141C103.749 37.5668 102.414 37.7071 101.43 37.9569C100.446 38.2066 99.8926 38.5454 99.8926 38.8987V52.2175C99.8926 52.5708 100.446 52.9095 101.43 53.1593C102.414 53.4091 103.749 53.5494 105.141 53.5494H136.634V52.2175Z" fill="#7DBB02"/>
<defs>
<linearGradient id="paint0_linear" x1="95.6919" y1="13.5853" x2="110.709" y2="106.205" gradientUnits="userSpaceOnUse">
<stop stop-color="#7DBB02"/>
<stop offset="1" stop-color="#FCFF73"/>
</linearGradient>
<linearGradient id="paint1_linear" x1="104.373" y1="82.0614" x2="91.0542" y2="120.159" gradientUnits="userSpaceOnUse">
<stop stop-color="#7DBB02"/>
<stop offset="1" stop-color="#D0FF73"/>
</linearGradient>
<linearGradient id="paint2_linear" x1="170.514" y1="82.061" x2="183.833" y2="120.158" gradientUnits="userSpaceOnUse">
<stop stop-color="#7DBB02"/>
<stop offset="1" stop-color="#D0FF73"/>
</linearGradient>
</defs>
</svg>
