<svg width="274" height="118" viewBox="0 0 274 118" fill="none" xmlns="http://www.w3.org/2000/svg">
<path d="M222.929 35.3729C219.762 34.4732 217.585 32.7583 217.849 31.3716L219.434 23.0513C219.962 20.2778 212.902 17.9067 202.873 17.9809L176.94 18.2881C172.783 18.2034 167.901 17.5472 164.733 16.6474L146.721 10.4338C142.102 8.39079 135.504 7.978 130.357 8.70845C128.641 8.95193 125.21 9.43889 124.22 10.254L106.271 16.849L101.124 17.5794C99.4079 17.8229 97.6922 18.0664 95.2508 17.7382L69.3186 18.0454C66.8772 17.7173 63.4459 18.2043 61.7302 18.4477C56.5832 19.1782 52.8877 21.0519 51.6336 23.2537L53.2155 32.4737C54.6669 33.617 52.687 35.2472 49.9815 36.3058L29.5908 42.5726C23.4539 44.1181 23.6512 47.4632 30.7112 49.8343L50.4396 55.8045C53.6068 56.7042 55.7839 58.4191 55.5197 59.8058L53.9345 68.1261C53.4061 70.8995 60.4661 73.2706 70.4958 73.1965L96.4281 72.8893C100.585 72.9739 105.468 73.6302 108.635 74.53L126.648 80.7436C131.266 82.7866 137.865 83.1994 143.012 82.4689C144.727 82.2254 146.443 81.982 147.433 81.1669L165.382 74.5719C167.098 74.3284 168.088 73.5133 169.804 73.2698C171.519 73.0263 173.235 72.7829 175.676 73.111L202.334 73.3754C204.776 73.7036 206.491 73.4601 208.207 73.2166C213.354 72.4861 217.049 70.6125 218.304 68.4107L217.447 59.7622C217.712 58.3755 219.691 56.7453 222.397 55.6867L241.072 49.6634C246.483 47.5462 248.002 43.9577 241.667 42.1582L222.929 35.3729ZM165.713 68.4534C127.969 73.81 84.0238 67.9036 68.0578 55.328C52.0917 42.7524 69.9105 28.0806 107.655 22.724C145.4 17.3674 189.345 23.2738 205.311 35.8494C221.277 48.425 203.458 63.0968 165.713 68.4534Z" fill="url(#paint0_linear)"/>
<path d="M117.274 93.0751C114.149 91.9828 113.247 90.7177 111.304 89.0885L104.711 82.0348L86.3102 80.3505C83.0466 80.1593 78.7416 79.604 75.6174 78.5117C73.5345 77.7836 72.4931 77.4195 71.5911 76.1544L20.3337 95.2747L75.1915 95.4584L82.8181 117.12L122.62 93.9945C120.398 94.1673 118.315 93.4392 117.274 93.0751Z" fill="url(#paint1_linear)"/>
<path d="M199.939 78.5115C196.815 79.6037 193.551 79.7949 189.246 80.3502L170.846 82.0345L164.253 89.0882C163.351 90.3534 161.407 91.9825 158.283 93.0748C156.2 93.803 155.159 94.1671 151.895 94.3583L192.739 117.119L200.365 95.4581L255.223 95.2745L202.924 76.5182C203.064 77.4192 200.981 78.1474 199.939 78.5115Z" fill="url(#paint2_linear)"/>
<g clip-path="url(#clip0)">
<path d="M135.734 41.3895C135.734 41.4995 136.288 41.5882 136.972 41.5882C137.655 41.5882 138.209 41.4991 138.209 41.3895C138.209 41.2792 135.734 41.2792 135.734 41.3895Z" fill="#7DBB02"/>
<path d="M136.971 37.79C140.786 37.79 143.768 37.7388 146.12 37.6609C143.588 36.2485 146.881 34.2797 143.767 34.8134C141.237 35.2471 138.748 35.5111 136.971 35.5111C135.194 35.5111 132.706 35.2471 130.174 34.8134C127.059 34.2797 130.355 36.2485 127.822 37.6609C130.174 37.7392 133.156 37.79 136.971 37.79Z" fill="#7DBB02"/>
<path d="M153.3 38.899C153.3 38.732 151.561 38.8023 147.622 38.1803C145.087 38.2888 141.654 38.3613 136.97 38.3613C132.285 38.3613 128.853 38.2888 126.317 38.1803C122.381 38.8023 120.641 38.732 120.641 38.899C120.641 38.9559 121.312 39.2844 125.019 39.5372C124.915 39.8722 124.98 40.2656 125.66 40.5544C126.097 40.7408 126.726 40.8577 127.531 40.9035C128.207 42.0307 131.193 42.5633 133.973 42.7742L130.662 42.8301L126.756 47.3807L126.284 47.9324C126.046 48.2083 126.84 48.39 127.591 48.39C128.085 48.39 128.56 48.3118 128.717 48.1308L129.189 47.5787L131.019 45.4465L131.206 47.7828H131.208L130.37 53.1379H130.625L130.401 53.6315C129.979 54.5601 134.276 54.7454 134.699 53.8169L135.008 53.1379H135.293L136.97 48.8159L138.647 53.1368H138.932L139.241 53.8158C139.662 54.7443 143.962 54.5593 143.539 53.6305L143.315 53.1368H143.571L142.732 47.7817H142.728L142.928 45.4332L144.769 47.578L145.242 48.13C145.397 48.3111 145.873 48.3893 146.367 48.3893C147.119 48.3893 147.912 48.2076 147.675 47.9317L147.202 47.38L143.296 42.8294L143.287 42.8301L139.968 42.7738C142.751 42.5633 145.737 42.0303 146.412 40.9031C147.216 40.8577 147.843 40.7405 148.282 40.5544C148.961 40.2656 149.025 39.8718 148.92 39.5368C152.628 39.2844 153.3 38.9559 153.3 38.899V38.899ZM128.151 48.0839C128.08 48.1668 127.891 48.2094 127.591 48.2094C127.326 48.2094 127.058 48.1719 126.922 48.1171C126.824 48.0785 126.8 48.033 126.847 47.9782L127.171 47.6007L128.475 47.7067L128.151 48.0839V48.0839ZM146.787 47.6003L147.111 47.9782C147.136 48.0015 147.142 48.0263 147.129 48.0504C147.117 48.0746 147.085 48.0975 147.037 48.1171C146.9 48.1719 146.629 48.2094 146.367 48.2094C146.066 48.2094 145.877 48.1672 145.807 48.0839L145.483 47.7067L146.787 47.6003ZM128.079 40.5616C127.398 40.5465 126.915 40.4747 126.602 40.342C126.225 40.1819 126.097 39.9317 126.183 39.6071C126.677 39.6338 127.197 39.6598 127.778 39.6829C127.651 39.8174 127.616 40.1084 127.85 40.0774C127.992 40.0586 128.143 40.0514 128.286 40.0478C128.318 40.1863 128.402 40.3579 128.527 40.571L128.079 40.5616V40.5616ZM140.444 43.3717C140.699 43.7568 139.107 44.628 137.992 45.1772L137.656 43.6768H136.281L135.946 45.1764C134.832 44.6273 133.242 43.7568 133.497 43.3717C133.577 43.2516 134.189 43.0454 134.639 42.9073L134.642 42.9083C134.584 42.8785 134.543 42.8458 134.521 42.8117C135.404 42.8662 136.248 42.8903 136.97 42.8903C137.692 42.8903 138.539 42.8662 139.422 42.8117C139.4 42.8451 139.359 42.8772 139.303 42.9065C139.751 43.045 140.36 43.2513 140.444 43.3717V43.3717ZM145.326 40.7185C144.6 42.4789 137.748 42.5297 136.969 42.5297C136.191 42.5297 129.347 42.4789 128.616 40.7185L128.614 40.7124C128.877 41.0726 129.58 41.2633 133.143 41.2929C136.435 41.3199 136.048 40.0828 136.97 40.0828C137.893 40.0828 137.506 41.3203 140.797 41.2929C144.378 41.2633 145.073 41.0704 145.331 40.7066L145.326 40.7185V40.7185ZM147.338 40.3424C147.027 40.4751 146.544 40.5465 145.864 40.5616L145.415 40.5714C145.539 40.3583 145.623 40.1866 145.655 40.0481C145.799 40.0518 145.948 40.059 146.09 40.0777C146.325 40.1087 146.29 39.8177 146.161 39.6832C146.742 39.6598 147.264 39.6342 147.756 39.6075C147.842 39.932 147.715 40.1823 147.338 40.3424Z" fill="#7DBB02"/>
<path d="M135.725 43.1409L136.283 43.5642H137.658L138.218 43.1405C137.817 43.182 137.396 43.2028 136.973 43.2022C136.549 43.2032 136.127 43.1825 135.725 43.1409Z" fill="#7DBB02"/>
<path d="M136.971 56.3594C141.481 56.3594 145.136 56.0365 145.136 55.6382C145.136 55.2399 141.481 54.917 136.971 54.917C132.462 54.917 128.807 55.2399 128.807 55.6382C128.807 56.0365 132.462 56.3594 136.971 56.3594Z" fill="#7DBB02"/>
<g clip-path="url(#clip1)">
<path d="M114.844 45.1748C114.844 45.2848 115.398 45.3735 116.081 45.3735C116.765 45.3735 117.319 45.2844 117.319 45.1748C117.319 45.0645 114.844 45.0645 114.844 45.1748Z" fill="#7DBB02"/>
<path d="M116.081 41.5753C119.895 41.5753 122.877 41.5241 125.229 41.4462C122.698 40.0338 125.991 38.065 122.876 38.5986C120.346 39.0324 117.857 39.2964 116.081 39.2964C114.303 39.2964 111.815 39.0324 109.283 38.5986C106.169 38.065 109.464 40.0338 106.932 41.4462C109.283 41.5245 112.266 41.5753 116.081 41.5753Z" fill="#7DBB02"/>
<path d="M132.409 42.6842C132.409 42.5173 130.67 42.5876 126.731 41.9656C124.197 42.0741 120.764 42.1466 116.08 42.1466C111.394 42.1466 107.963 42.0741 105.427 41.9656C101.49 42.5876 99.75 42.5173 99.75 42.6842C99.75 42.7412 100.422 43.0697 104.129 43.3225C104.025 43.6575 104.089 44.0509 104.769 44.3397C105.206 44.5261 105.835 44.643 106.64 44.6887C107.316 45.8159 110.302 46.3485 113.082 46.5595L109.772 46.6154L105.865 51.166L105.393 51.7177C105.155 51.9936 105.949 52.1753 106.701 52.1753C107.194 52.1753 107.67 52.0971 107.826 51.916L108.299 51.364L110.129 49.2318L110.315 51.5681H110.318L109.479 56.9232H109.734L109.51 57.4168C109.088 58.3453 113.385 58.5307 113.809 57.6022L114.118 56.9232H114.402L116.08 52.6012L117.757 56.9221H118.041L118.351 57.6011C118.772 58.5296 123.071 58.3446 122.649 57.4157L122.425 56.9221H122.68L121.842 51.567H121.837L122.038 49.2185L123.878 51.3633L124.352 51.9153C124.507 52.0963 124.983 52.1746 125.476 52.1746C126.228 52.1746 127.022 51.9928 126.785 51.717L126.311 51.1653L122.405 46.6147L122.397 46.6154L119.077 46.5591C121.86 46.3485 124.846 45.8156 125.522 44.6884C126.325 44.643 126.953 44.5258 127.391 44.3397C128.07 44.0509 128.134 43.6571 128.029 43.3221C131.737 43.0697 132.409 42.7412 132.409 42.6842V42.6842ZM107.26 51.8692C107.189 51.9521 107 51.9946 106.701 51.9946C106.436 51.9946 106.168 51.9571 106.031 51.9023C105.933 51.8638 105.91 51.8183 105.956 51.7635L106.281 51.386L107.585 51.492L107.26 51.8692V51.8692ZM125.896 51.3856L126.22 51.7635C126.245 51.7868 126.252 51.8115 126.239 51.8357C126.226 51.8599 126.194 51.8828 126.147 51.9023C126.009 51.9571 125.738 51.9946 125.476 51.9946C125.175 51.9946 124.986 51.9525 124.916 51.8692L124.592 51.492L125.896 51.3856ZM107.188 44.3469C106.507 44.3318 106.024 44.26 105.711 44.1273C105.335 43.9672 105.206 43.717 105.293 43.3924C105.786 43.4191 106.306 43.4451 106.887 43.4682C106.76 43.6027 106.725 43.8936 106.96 43.8626C107.102 43.8439 107.252 43.8367 107.396 43.8331C107.427 43.9715 107.511 44.1432 107.636 44.3563L107.188 44.3469V44.3469ZM119.553 47.157C119.809 47.5421 118.216 48.4133 117.101 48.9624L116.765 47.462H115.39L115.055 48.9617C113.942 48.4126 112.352 47.5421 112.606 47.157C112.687 47.0369 113.299 46.8306 113.748 46.6925L113.751 46.6936C113.693 46.6638 113.652 46.6311 113.63 46.597C114.513 46.6514 115.358 46.6756 116.08 46.6756C116.802 46.6756 117.648 46.6514 118.531 46.597C118.509 46.6304 118.469 46.6625 118.412 46.6918C118.86 46.8303 119.469 47.0365 119.553 47.157V47.157ZM124.436 44.5038C123.709 46.2642 116.858 46.315 116.078 46.315C115.3 46.315 108.456 46.2642 107.726 44.5038L107.723 44.4976C107.986 44.8579 108.689 45.0486 112.253 45.0782C115.544 45.1052 115.157 43.868 116.08 43.868C117.002 43.868 116.615 45.1056 119.907 45.0782C123.487 45.0486 124.183 44.8557 124.44 44.4919L124.436 44.5038V44.5038ZM126.448 44.1277C126.136 44.2604 125.653 44.3318 124.973 44.3469L124.524 44.3566C124.648 44.1435 124.732 43.9719 124.765 43.8334C124.908 43.837 125.057 43.8442 125.2 43.863C125.434 43.894 125.399 43.603 125.271 43.4685C125.852 43.4451 126.373 43.4195 126.865 43.3928C126.952 43.7173 126.824 43.9676 126.448 44.1277Z" fill="#7DBB02"/>
<path d="M114.834 46.9261L115.393 47.3495H116.768L117.328 46.9258C116.926 46.9672 116.505 46.9881 116.082 46.9874C115.658 46.9885 115.236 46.9678 114.834 46.9261Z" fill="#7DBB02"/>
</g>
<g clip-path="url(#clip2)">
<path d="M156.625 44.4421C156.625 44.5521 157.179 44.6408 157.863 44.6408C158.546 44.6408 159.1 44.5517 159.1 44.4421C159.1 44.3318 156.625 44.3318 156.625 44.4421Z" fill="#7DBB02"/>
<path d="M157.862 40.8426C161.676 40.8426 164.659 40.7914 167.01 40.7135C164.479 39.3011 167.772 37.3323 164.658 37.866C162.128 38.2998 159.639 38.5637 157.862 38.5637C156.085 38.5637 153.597 38.2998 151.064 37.866C147.95 37.3323 151.245 39.3011 148.713 40.7135C151.064 40.7918 154.047 40.8426 157.862 40.8426Z" fill="#7DBB02"/>
<path d="M174.19 41.9516C174.19 41.7846 172.451 41.8549 168.512 41.2329C165.978 41.3414 162.545 41.4139 157.861 41.4139C153.175 41.4139 149.744 41.3414 147.208 41.2329C143.272 41.8549 141.531 41.7846 141.531 41.9516C141.531 42.0085 142.203 42.337 145.91 42.5898C145.806 42.9248 145.87 43.3182 146.55 43.607C146.988 43.7935 147.616 43.9103 148.421 43.9561C149.098 45.0833 152.084 45.6159 154.863 45.8268L151.553 45.8827L147.647 50.4333L147.174 50.985C146.936 51.2609 147.731 51.4426 148.482 51.4426C148.975 51.4426 149.451 51.3644 149.607 51.1834L150.08 50.6313L151.91 48.4991L152.096 50.8354H152.099L151.26 56.1905H151.516L151.292 56.6842C150.869 57.6127 155.166 57.798 155.59 56.8695L155.899 56.1905H156.184L157.861 51.8685L159.538 56.1894H159.823L160.132 56.8684C160.553 57.7969 164.852 57.612 164.43 56.6831L164.206 56.1894H164.461L163.623 50.8343H163.618L163.819 48.4858L165.659 50.6306L166.133 51.1826C166.288 51.3637 166.764 51.4419 167.257 51.4419C168.01 51.4419 168.803 51.2602 168.566 50.9843L168.092 50.4326L164.186 45.882L164.178 45.8827L160.858 45.8265C163.641 45.6159 166.627 45.0829 167.303 43.9557C168.106 43.9103 168.734 43.7931 169.173 43.607C169.851 43.3182 169.916 42.9244 169.811 42.5894C173.519 42.337 174.19 42.0085 174.19 41.9516V41.9516ZM149.042 51.1365C148.971 51.2194 148.782 51.262 148.482 51.262C148.217 51.262 147.949 51.2245 147.812 51.1697C147.714 51.1311 147.691 51.0857 147.738 51.0308L148.062 50.6533L149.366 50.7593L149.042 51.1365V51.1365ZM167.677 50.6529L168.001 51.0308C168.026 51.0541 168.033 51.0789 168.02 51.1031C168.007 51.1272 167.976 51.1501 167.928 51.1697C167.79 51.2245 167.52 51.262 167.257 51.262C166.956 51.262 166.767 51.2198 166.697 51.1365L166.373 50.7593L167.677 50.6529ZM148.969 43.6142C148.288 43.5991 147.805 43.5273 147.493 43.3946C147.116 43.2345 146.988 42.9843 147.074 42.6598C147.567 42.6864 148.088 42.7124 148.668 42.7355C148.541 42.87 148.506 43.161 148.741 43.13C148.883 43.1112 149.034 43.104 149.177 43.1004C149.208 43.2389 149.292 43.4105 149.417 43.6236L148.969 43.6142V43.6142ZM161.334 46.4243C161.59 46.8094 159.998 47.6806 158.883 48.2298L158.547 46.7294H157.171L156.837 48.2291C155.723 47.6799 154.133 46.8094 154.387 46.4243C154.468 46.3042 155.08 46.098 155.529 45.9599L155.533 45.961C155.475 45.9311 155.434 45.8984 155.411 45.8643C156.294 45.9188 157.139 45.9429 157.861 45.9429C158.583 45.9429 159.43 45.9188 160.313 45.8643C160.29 45.8978 160.25 45.9298 160.194 45.9592C160.642 46.0976 161.25 46.3039 161.334 46.4243V46.4243ZM166.217 43.7711C165.49 45.5315 158.639 45.5823 157.86 45.5823C157.082 45.5823 150.237 45.5315 149.507 43.7711L149.505 43.765C149.767 44.1252 150.471 44.3159 154.034 44.3455C157.325 44.3726 156.938 43.1354 157.861 43.1354C158.783 43.1354 158.396 44.3729 161.688 44.3455C165.269 44.3159 165.964 44.123 166.222 43.7592L166.217 43.7711V43.7711ZM168.229 43.395C167.917 43.5277 167.435 43.5991 166.755 43.6142L166.306 43.624C166.429 43.4109 166.513 43.2392 166.546 43.1008C166.689 43.1044 166.839 43.1116 166.981 43.1303C167.215 43.1613 167.18 42.8703 167.052 42.7358C167.633 42.7124 168.154 42.6868 168.646 42.6601C168.733 42.9847 168.606 43.2349 168.229 43.395Z" fill="#7DBB02"/>
<path d="M156.615 46.1935L157.174 46.6168H158.549L159.109 46.1931C158.707 46.2346 158.287 46.2554 157.863 46.2548C157.439 46.2558 157.017 46.2351 156.615 46.1935Z" fill="#7DBB02"/>
</g>
</g>
<defs>
<linearGradient id="paint0_linear" x1="96.0278" y1="13.5803" x2="111.035" y2="106.169" gradientUnits="userSpaceOnUse">
<stop stop-color="#7DBB02"/>
<stop offset="1" stop-color="#FCFF73"/>
</linearGradient>
<linearGradient id="paint1_linear" x1="104.711" y1="82.0348" x2="91.3965" y2="120.119" gradientUnits="userSpaceOnUse">
<stop stop-color="#7DBB02"/>
<stop offset="1" stop-color="#D0FF73"/>
</linearGradient>
<linearGradient id="paint2_linear" x1="170.846" y1="82.0345" x2="184.16" y2="120.119" gradientUnits="userSpaceOnUse">
<stop stop-color="#7DBB02"/>
<stop offset="1" stop-color="#D0FF73"/>
</linearGradient>
<clipPath id="clip0">
<rect width="74.6494" height="23.0777" fill="white" transform="translate(99.6465 34.0028)"/>
</clipPath>
<clipPath id="clip1">
<rect width="74.6494" height="23.0777" fill="white" transform="translate(78.7559 37.7881)"/>
</clipPath>
<clipPath id="clip2">
<rect width="74.6494" height="23.0777" fill="white" transform="translate(120.537 37.0554)"/>
</clipPath>
</defs>
</svg>
