<svg width="274" height="118" viewBox="0 0 274 118" fill="none" xmlns="http://www.w3.org/2000/svg">
<path d="M223.038 35.3729C219.871 34.4732 217.694 32.7583 217.958 31.3716L219.543 23.0513C220.072 20.2779 213.012 17.9067 202.982 17.9809L177.05 18.2881C172.893 18.2034 168.01 17.5472 164.843 16.6474L146.83 10.4338C142.211 8.39079 135.613 7.978 130.466 8.70844C128.75 8.95193 125.319 9.43889 124.329 10.254L106.38 16.849L101.233 17.5794C99.5173 17.8229 97.8016 18.0664 95.3602 17.7382L69.428 18.0454C66.9866 17.7173 63.5552 18.2042 61.8396 18.4477C56.6926 19.1782 52.9971 21.0519 51.7429 23.2537L53.3248 32.4737C54.7763 33.617 52.7964 35.2472 50.0908 36.3058L29.7002 42.5726C23.5633 44.1181 23.7606 47.4632 30.8206 49.8343L50.549 55.8045C53.7161 56.7042 55.8933 58.4191 55.6291 59.8058L54.0439 68.1261C53.5155 70.8995 60.5754 73.2707 70.6052 73.1965L96.5375 72.8893C100.695 72.974 105.577 73.6302 108.744 74.53L126.757 80.7436C131.376 82.7866 137.974 83.1994 143.121 82.4689C144.837 82.2255 146.553 81.982 147.542 81.1669L165.492 74.5719C167.207 74.3284 168.197 73.5133 169.913 73.2698C171.629 73.0263 173.344 72.7829 175.786 73.111L202.444 73.3755C204.885 73.7036 206.601 73.4601 208.316 73.2166C213.463 72.4862 217.159 70.6125 218.413 68.4107L217.557 59.7622C217.821 58.3755 219.801 56.7453 222.506 55.6867L241.181 49.6634C246.593 47.5462 248.111 43.9577 241.777 42.1582L223.038 35.3729ZM165.823 68.4534C128.078 73.81 84.1332 67.9036 68.1671 55.328C52.2011 42.7524 70.0199 28.0806 107.764 22.724C145.509 17.3674 189.454 23.2738 205.42 35.8494C221.386 48.425 203.567 63.0968 165.823 68.4534Z" fill="url(#paint0_linear)"/>
<path d="M117.385 93.0751C114.261 91.9828 113.359 90.7177 111.415 89.0885L104.822 82.0348L86.4215 80.3505C83.1579 80.1593 78.8529 79.604 75.7287 78.5117C73.6459 77.7836 72.6045 77.4195 71.7024 76.1544L20.445 95.2747L75.3028 95.4584L82.9294 117.12L122.731 93.9945C120.509 94.1673 118.426 93.4392 117.385 93.0751Z" fill="url(#paint1_linear)"/>
<path d="M200.051 78.5115C196.926 79.6037 193.663 79.7949 189.358 80.3502L170.957 82.0345L164.364 89.0882C163.462 90.3534 161.519 91.9825 158.394 93.0748C156.312 93.803 155.27 94.1671 152.007 94.3583L192.85 117.119L200.477 95.4581L255.334 95.2745L203.035 76.5182C203.175 77.4192 201.092 78.1474 200.051 78.5115Z" fill="url(#paint2_linear)"/>
<path fill-rule="evenodd" clip-rule="evenodd" d="M96.4219 54.7811H147.722V55.8971H96.4219V54.7811Z" fill="#7DBB02"/>
<path fill-rule="evenodd" clip-rule="evenodd" d="M144.399 37.5815L129.09 38.5892L134.269 40.4422L118.884 45.1144L105.755 41.2771C105.596 41.2269 105.411 41.1884 105.21 41.1639C105.009 41.1394 104.797 41.1293 104.586 41.1342C104.374 41.1391 104.167 41.1589 103.977 41.1925C103.787 41.226 103.617 41.2727 103.478 41.3299C103.338 41.387 103.231 41.4534 103.164 41.5254C103.096 41.5973 103.069 41.6733 103.084 41.7489C103.099 41.8246 103.155 41.8985 103.25 41.9664C103.345 42.0342 103.476 42.0947 103.637 42.1443L118.91 46.6518L136.545 41.2564L141.965 43.1958L144.399 37.5815V37.5815Z" fill="#7DBB02"/>
<path fill-rule="evenodd" clip-rule="evenodd" d="M131.826 45.5681H141.325V53.4891H131.826V45.5681Z" fill="#7DBB02"/>
<path fill-rule="evenodd" clip-rule="evenodd" d="M99.6445 46.7197H109.243V53.4891H99.6445V46.7197Z" fill="#7DBB02"/>
<path fill-rule="evenodd" clip-rule="evenodd" d="M115.732 49.0231H125.231V53.5052H115.732V49.0231Z" fill="#7DBB02"/>
<g clip-path="url(#clip0)">
<path d="M162.008 40.2062C162.008 40.3161 162.646 40.4049 163.432 40.4049C164.219 40.4049 164.857 40.3158 164.857 40.2062C164.857 40.0958 162.008 40.0958 162.008 40.2062Z" fill="#7DBB02"/>
<path d="M163.432 36.6067C167.822 36.6067 171.255 36.5555 173.962 36.4776C171.049 35.0652 174.839 33.0963 171.254 33.63C168.342 34.0638 165.477 34.3278 163.432 34.3278C161.386 34.3278 158.522 34.0638 155.607 33.63C152.022 33.0963 155.815 35.0652 152.9 36.4776C155.607 36.5558 159.04 36.6067 163.432 36.6067Z" fill="#7DBB02"/>
<path d="M182.228 37.7155C182.228 37.5485 180.226 37.6188 175.692 36.9968C172.775 37.1054 168.823 37.1778 163.431 37.1778C158.038 37.1778 154.088 37.1054 151.169 36.9968C146.638 37.6188 144.635 37.5485 144.635 37.7155C144.635 37.7725 145.408 38.101 149.675 38.3537C149.555 38.6887 149.629 39.0821 150.412 39.3709C150.916 39.5574 151.639 39.6742 152.566 39.72C153.344 40.8472 156.781 41.3798 159.981 41.5907L156.171 41.6466L151.674 46.1973L151.13 46.749C150.856 47.0248 151.771 47.2066 152.635 47.2066C153.203 47.2066 153.751 47.1283 153.931 46.9473L154.475 46.3952L156.581 44.2631L156.796 46.5993H156.799L155.834 51.9544H156.128L155.87 52.4481C155.384 53.3766 160.33 53.5619 160.817 52.6334L161.173 51.9544H161.501L163.431 47.6324L165.362 51.9533H165.69L166.046 52.6323C166.53 53.5609 171.479 53.3759 170.993 52.447L170.735 51.9533H171.029L170.064 46.5982H170.059L170.29 44.2497L172.408 46.3945L172.953 46.9466C173.132 47.1276 173.68 47.2058 174.248 47.2058C175.114 47.2058 176.027 47.0241 175.754 46.7482L175.209 46.1965L170.712 41.6459L170.703 41.6466L166.882 41.5904C170.085 41.3798 173.523 40.8468 174.3 39.7196C175.225 39.6742 175.947 39.557 176.452 39.3709C177.234 39.0821 177.307 38.6884 177.187 38.3534C181.455 38.101 182.228 37.7725 182.228 37.7155V37.7155ZM153.28 46.9004C153.198 46.9833 152.98 47.0259 152.635 47.0259C152.331 47.0259 152.022 46.9884 151.865 46.9336C151.752 46.895 151.725 46.8496 151.779 46.7948L152.152 46.4172L153.653 46.5232L153.28 46.9004V46.9004ZM174.731 46.4169L175.104 46.7948C175.133 46.818 175.14 46.8428 175.126 46.867C175.111 46.8912 175.074 46.914 175.02 46.9336C174.861 46.9884 174.55 47.0259 174.248 47.0259C173.901 47.0259 173.684 46.9837 173.603 46.9004L173.23 46.5232L174.731 46.4169ZM153.197 39.3782C152.413 39.363 151.857 39.2913 151.497 39.1586C151.063 38.9985 150.916 38.7482 151.015 38.4237C151.583 38.4504 152.182 38.4763 152.85 38.4994C152.704 38.6339 152.664 38.9249 152.933 38.8939C153.097 38.8751 153.27 38.8679 153.436 38.8643C153.472 39.0028 153.569 39.1744 153.712 39.3875L153.197 39.3782V39.3782ZM167.43 42.1882C167.724 42.5733 165.891 43.4445 164.608 43.9937L164.221 42.4933H162.638L162.253 43.993C160.97 43.4438 159.14 42.5733 159.433 42.1882C159.526 42.0682 160.231 41.8619 160.748 41.7238L160.752 41.7249C160.685 41.695 160.638 41.6623 160.612 41.6282C161.628 41.6827 162.6 41.7068 163.431 41.7068C164.263 41.7068 165.237 41.6827 166.254 41.6282C166.228 41.6617 166.182 41.6937 166.117 41.7231C166.632 41.8615 167.333 42.0678 167.43 42.1882V42.1882ZM173.05 39.535C172.214 41.2954 164.327 41.3463 163.43 41.3463C162.535 41.3463 154.656 41.2954 153.816 39.535L153.813 39.5289C154.115 39.8891 154.925 40.0799 159.026 40.1094C162.815 40.1365 162.369 38.8993 163.431 38.8993C164.493 38.8993 164.048 40.1368 167.837 40.1094C171.958 40.0799 172.759 39.8869 173.055 39.5231L173.05 39.535V39.535ZM175.366 39.1589C175.008 39.2916 174.452 39.363 173.669 39.3782L173.152 39.3879C173.294 39.1748 173.391 39.0031 173.429 38.8647C173.594 38.8683 173.766 38.8755 173.929 38.8942C174.199 38.9253 174.159 38.6343 174.011 38.4998C174.68 38.4763 175.28 38.4507 175.847 38.424C175.946 38.7486 175.8 38.9988 175.366 39.1589Z" fill="#7DBB02"/>
<path d="M161.998 41.9575L162.641 42.3808H164.224L164.869 41.9572C164.406 41.9986 163.922 42.0194 163.435 42.0188C162.946 42.0199 162.461 41.9992 161.998 41.9575Z" fill="#7DBB02"/>
<path d="M163.433 55.176C168.624 55.176 172.832 54.8531 172.832 54.4548C172.832 54.0565 168.624 53.7336 163.433 53.7336C158.243 53.7336 154.035 54.0565 154.035 54.4548C154.035 54.8531 158.243 55.176 163.433 55.176Z" fill="#7DBB02"/>
</g>
<defs>
<linearGradient id="paint0_linear" x1="96.1372" y1="13.5803" x2="111.144" y2="106.169" gradientUnits="userSpaceOnUse">
<stop stop-color="#7DBB02"/>
<stop offset="1" stop-color="#FCFF73"/>
</linearGradient>
<linearGradient id="paint1_linear" x1="104.822" y1="82.0348" x2="91.5078" y2="120.119" gradientUnits="userSpaceOnUse">
<stop stop-color="#7DBB02"/>
<stop offset="1" stop-color="#D0FF73"/>
</linearGradient>
<linearGradient id="paint2_linear" x1="170.957" y1="82.0345" x2="184.271" y2="120.119" gradientUnits="userSpaceOnUse">
<stop stop-color="#7DBB02"/>
<stop offset="1" stop-color="#D0FF73"/>
</linearGradient>
<clipPath id="clip0">
<rect width="85.9277" height="23.0777" fill="white" transform="translate(120.469 32.8195)"/>
</clipPath>
</defs>
</svg>
