<svg width="274" height="118" viewBox="0 0 274 118" fill="none" xmlns="http://www.w3.org/2000/svg">
<path d="M223.482 35.3729C220.314 34.4732 218.137 32.7583 218.401 31.3716L219.987 23.0513C220.515 20.2778 213.455 17.9067 203.425 17.9809L177.493 18.2881C173.336 18.2034 168.453 17.5472 165.286 16.6474L147.273 10.4338C142.655 8.39079 136.056 7.978 130.909 8.70845C129.194 8.95193 125.762 9.43889 124.773 10.254L106.823 16.849L101.676 17.5794C99.9606 17.8229 98.245 18.0664 95.8036 17.7382L69.8713 18.0454C67.4299 17.7173 63.9986 18.2043 62.2829 18.4477C57.136 19.1782 53.4404 21.0519 52.1863 23.2537L53.7682 32.4737C55.2196 33.617 53.2398 35.2472 50.5342 36.3058L30.1436 42.5726C24.0066 44.1181 24.204 47.4632 31.2639 49.8343L50.9924 55.8045C54.1595 56.7042 56.3367 58.4191 56.0725 59.8058L54.4872 68.1261C53.9588 70.8995 61.0188 73.2706 71.0486 73.1965L96.9808 72.8893C101.138 72.9739 106.021 73.6302 109.188 74.53L127.201 80.7436C131.819 82.7866 138.418 83.1994 143.565 82.4689C145.28 82.2254 146.996 81.982 147.986 81.1669L165.935 74.5719C167.651 74.3284 168.641 73.5133 170.356 73.2698C172.072 73.0263 173.788 72.7829 176.229 73.111L202.887 73.3754C205.328 73.7036 207.044 73.4601 208.76 73.2166C213.907 72.4861 217.602 70.6125 218.856 68.4107L218 59.7622C218.264 58.3755 220.244 56.7453 222.95 55.6867L241.625 49.6634C247.036 47.5462 248.554 43.9577 242.22 42.1582L223.482 35.3729ZM166.266 68.4534C128.522 73.81 84.5765 67.9036 68.6105 55.328C52.6445 42.7524 70.4633 28.0806 108.208 22.724C145.952 17.3674 189.897 23.2738 205.863 35.8494C221.829 48.425 204.011 63.0968 166.266 68.4534Z" fill="url(#studymatpaint0_linear)"/>
<path d="M117.826 93.0751C114.702 91.9828 113.8 90.7177 111.857 89.0885L105.264 82.0348L86.8629 80.3505C83.5993 80.1593 79.2943 79.604 76.1701 78.5117C74.0873 77.7836 73.0459 77.4195 72.1438 76.1544L20.8864 95.2747L75.7442 95.4584L83.3708 117.12L123.173 93.9945C120.951 94.1673 118.868 93.4392 117.826 93.0751Z" fill="url(#studymatpaint1_linear)"/>
<path d="M200.494 78.5115C197.37 79.6037 194.106 79.7949 189.801 80.3502L171.4 82.0345L164.807 89.0882C163.905 90.3534 161.962 91.9825 158.838 93.0748C156.755 93.803 155.714 94.1671 152.45 94.3583L193.293 117.119L200.92 95.4581L255.778 95.2745L203.479 76.5182C203.618 77.4192 201.535 78.1474 200.494 78.5115Z" fill="url(#studymatpaint2_linear)"/>
<path d="M134.521 33.715C134.196 33.7368 133.885 33.7908 133.611 33.8729C133.611 33.8729 130.776 34.6789 127.728 35.5506C124.679 36.4213 121.288 37.3811 120.513 37.5755C120.465 37.5849 120.418 37.595 120.371 37.6059C117.556 38.3906 116.971 39.6724 116.87 40.3912C116.864 40.4246 116.87 40.452 116.87 40.4874C116.846 40.7567 116.87 40.9299 116.87 40.9299V54.1558C116.87 56.0775 121.831 57.0019 126.538 57.0019C128.107 57.0019 129.675 56.8875 131.02 56.685C131.917 56.4825 132.56 56.0775 132.56 55.6725V45.0415C132.56 42.7128 133.681 41.6194 137.043 40.7081C137.94 40.5056 147.34 37.5745 147.34 37.5745C147.788 37.372 148.25 36.961 148.25 36.6572V36.5621C148.25 36.1571 147.802 35.8472 147.129 35.6448C146.457 35.4423 145.56 35.4423 144.888 35.6448C144.664 35.746 130.991 39.9042 128.077 40.613C125.164 41.4229 122.445 41.6183 121.772 41.2134C121.564 41.1192 121.382 40.8306 121.353 40.5492V40.5178V40.4854C121.355 40.21 121.512 39.6916 122.754 39.3464C124.014 39.0295 127.14 38.1273 130.18 37.2586C131.464 36.8911 131.623 36.8516 132.63 36.5621C132.762 36.8094 133.096 37.0251 133.565 37.1663C134.033 37.3075 134.603 37.3638 135.159 37.324C135.715 37.2841 136.218 37.1511 136.567 36.9514C136.916 36.7517 137.086 36.4999 137.043 36.2462V34.7275C137.046 34.5831 136.98 34.4402 136.85 34.3084C136.72 34.1765 136.53 34.0587 136.291 33.9628C136.052 33.8669 135.771 33.7952 135.465 33.7524C135.16 33.7097 134.838 33.6969 134.521 33.715V33.715ZM152.453 37.2586C152.096 37.2854 151.759 37.3507 151.471 37.449C151.471 37.449 140.188 40.8782 138.233 41.4665C138.209 41.477 138.186 41.4878 138.164 41.4989C136.541 42.0486 135.579 42.7027 135.151 43.3011C134.849 43.7253 134.804 44.0716 134.802 44.3459V44.6629C134.798 44.6942 134.798 44.7256 134.802 44.757V57.0019C134.802 58.9256 139.706 60.0393 144.189 60.0393C146.206 60.0393 148.026 59.8429 149.371 59.4379C152.06 58.7292 165.061 54.1548 165.061 54.1548C165.733 53.9523 166.181 53.6668 166.181 53.363V40.2009C166.181 39.6946 165.746 39.3909 164.85 39.1884C164.177 38.9859 163.072 39.0811 162.4 39.2836C158.814 40.4986 149.16 43.9288 146.919 44.5363C143.781 45.3463 140.824 45.5488 139.704 45.0425C139.255 44.84 139.284 44.6497 139.284 44.3459C139.298 44.1718 139.34 44.022 139.426 43.9025C139.551 43.7263 139.807 43.5096 140.755 43.1755C140.8 43.1593 140.777 43.1603 140.824 43.1441C142.445 42.6551 147.401 41.1293 150.633 40.1371C150.816 40.359 151.165 40.5449 151.62 40.6624C152.076 40.78 152.607 40.8217 153.124 40.7804C153.64 40.7391 154.108 40.6174 154.446 40.4364C154.784 40.2554 154.971 40.0266 154.974 39.7898V38.2711C154.977 38.1268 154.911 37.9839 154.781 37.852C154.651 37.7201 154.461 37.6023 154.222 37.5064C153.983 37.4106 153.702 37.3388 153.397 37.2961C153.092 37.2534 152.77 37.2406 152.453 37.2586ZM161.698 44.6629V46.6878L150.491 50.6101V48.5852L161.698 44.6629Z" fill="#7DBB02"/>
<defs>
<linearGradient id="studymatpaint0_linear" x1="96.5806" y1="13.5803" x2="111.588" y2="106.169" gradientUnits="userSpaceOnUse">
<stop stop-color="#7DBB02"/>
<stop offset="1" stop-color="#FCFF73"/>
</linearGradient>
<linearGradient id="studymatpaint1_linear" x1="105.264" y1="82.0348" x2="91.9492" y2="120.119" gradientUnits="userSpaceOnUse">
<stop stop-color="#7DBB02"/>
<stop offset="1" stop-color="#D0FF73"/>
</linearGradient>
<linearGradient id="studymatpaint2_linear" x1="171.4" y1="82.0345" x2="184.715" y2="120.119" gradientUnits="userSpaceOnUse">
<stop stop-color="#7DBB02"/>
<stop offset="1" stop-color="#D0FF73"/>
</linearGradient>
</defs>
</svg>
